<svg width="46" height="40" viewBox="0 0 46 40" fill="none" xmlns="http://www.w3.org/2000/svg">
<path d="M33.2387 0.58821C28.9667 0.510583 25.261 3.48926 23.2173 5.55212C21.2499 3.41637 17.6631 0.305182 13.3931 0.227592C6.03334 0.0938557 0.801922 5.13053 0.668482 12.474C0.52145 20.5655 6.80789 25.9114 12.8895 31.0823C15.7607 33.526 18.7322 36.051 20.9958 38.8324C21.3767 39.298 21.9426 39.5733 22.5418 39.5842L22.66 39.5864C23.2613 39.5973 23.8348 39.3406 24.2303 38.8911C26.5975 36.194 29.6569 33.7765 32.6169 31.4407C38.8803 26.4962 45.3609 21.3823 45.5079 13.2888C45.6414 5.94532 40.5964 0.72191 33.2387 0.58821Z" fill="#FF4B65"/>
</svg>
