<svg width="101" height="98" viewBox="0 0 101 98" fill="none" xmlns="http://www.w3.org/2000/svg">
<path d="M7.97258 75.1225L11.7913 76.3551L27.815 26.7124L23.9963 25.4798C21.9707 24.826 19.7684 25.0036 17.8738 25.9735C15.9792 26.9435 14.5476 28.6264 13.8938 30.6519L2.80042 65.02C2.14661 67.0455 2.32423 69.2478 3.2942 71.1424C4.26416 73.037 5.94703 74.4687 7.97258 75.1225ZM85.0951 45.2013L58.3644 36.5731L66.8003 25.0948C67.5531 24.0704 68.0518 22.8817 68.2552 21.6268C68.4586 20.3719 68.3611 19.0866 67.9705 17.8768C67.5799 16.667 66.9075 15.5673 66.0086 14.6683C65.1098 13.7693 64.0102 13.0966 62.8005 12.7058L61.9413 12.4285L36.145 27.0315L19.4286 78.8203L61.434 92.3788L86.968 64.3754L87.802 62.9412L90.2672 55.3038C90.921 53.2783 90.7434 51.0759 89.7735 49.1814C88.8035 47.2868 87.1206 45.8551 85.0951 45.2013Z" fill="#FF4B65"/>
</svg>
