<svg width="120" height="96" viewBox="0 0 120 96" fill="none" xmlns="http://www.w3.org/2000/svg">
<path d="M97.3335 60.9043C96.3612 60.9043 95.573 61.6925 95.573 62.6648V65.8066C95.573 66.7789 96.3612 67.5671 97.3335 67.5671C98.3058 67.5671 99.0941 66.7789 99.0941 65.8066V62.6648C99.0941 61.6925 98.3058 60.9043 97.3335 60.9043Z" fill="url(#paint0_radial)"/>
<path d="M81.8133 60.9043C80.841 60.9043 80.0527 61.6925 80.0527 62.6648V65.8066C80.0527 66.7789 80.841 67.5671 81.8133 67.5671C82.7856 67.5671 83.5738 66.7789 83.5738 65.8066V62.6648C83.5738 61.6925 82.7856 60.9043 81.8133 60.9043Z" fill="url(#paint1_radial)"/>
<path d="M89.5736 48.709C88.6014 48.709 87.8131 49.4972 87.8131 50.4695V53.6113C87.8131 54.5835 88.6014 55.3718 89.5736 55.3718C90.5459 55.3718 91.3342 54.5835 91.3342 53.6113V50.4695C91.3342 49.4972 90.5459 48.709 89.5736 48.709Z" fill="url(#paint2_radial)"/>
<path d="M106.149 48.709C105.177 48.709 104.388 49.4972 104.388 50.4695V53.6113C104.388 54.5835 105.177 55.3718 106.149 55.3718C107.121 55.3718 107.909 54.5835 107.909 53.6113V50.4695C107.909 49.4972 107.121 48.709 106.149 48.709Z" fill="url(#paint3_radial)"/>
<path d="M89.5736 71.4951C88.6014 71.4951 87.8131 72.2834 87.8131 73.2557V76.3974C87.8131 77.3697 88.6014 78.1579 89.5736 78.1579C90.5459 78.1579 91.3342 77.3697 91.3342 76.3974V73.2557C91.3342 72.2834 90.5459 71.4951 89.5736 71.4951Z" fill="url(#paint4_radial)"/>
<path d="M111.203 33.4305C111.577 33.068 111.946 32.6967 112.303 32.3056C115.341 28.9815 117.191 24.9984 117.653 20.7872C117.777 19.657 117.222 18.5591 116.238 17.9901C112.618 15.8958 108.372 15.0216 103.957 15.4627C102.737 15.5845 101.56 15.7836 100.439 16.0554C100.285 14.7216 100.016 13.3766 99.6286 12.0332C99.3591 11.0989 98.3838 10.5599 97.4491 10.8294C96.5148 11.0989 95.9758 12.0747 96.2453 13.009C96.65 14.4125 96.9049 15.8122 97.0124 17.1892C95.9333 17.6533 94.9331 18.1971 94.031 18.8199C92.3517 19.979 90.8588 21.2908 89.5726 22.7194C88.2872 21.2905 86.7955 19.9788 85.1166 18.8199C84.2178 18.1995 83.2216 17.6572 82.1469 17.1943C82.327 15.3535 82.8446 13.3918 83.6838 11.3998C85.0579 8.13791 87.2368 5.4795 89.9996 3.6868C91.0635 4.4713 92.0341 5.39875 92.8897 6.44873C93.5038 7.20248 94.6129 7.31562 95.3667 6.70131C96.1204 6.08724 96.2336 4.9781 95.6193 4.22435C94.4639 2.8063 93.1322 1.569 91.6618 0.546713C90.7283 -0.102338 89.4985 -0.138957 88.5283 0.453052C84.9589 2.63189 82.1617 5.94475 80.4392 10.0329C79.5801 12.0724 79.0101 14.1059 78.7392 16.0636C77.6085 15.788 76.4221 15.5861 75.1905 15.4631C70.7767 15.0223 66.5293 15.8965 62.9097 17.9906C61.9261 18.5596 61.3705 19.6577 61.4944 20.7877C61.9562 24.9989 63.8061 28.9819 66.8444 32.3061C67.2023 32.6979 67.5695 33.0746 67.9441 33.438C66.327 35.075 64.8918 36.8919 63.6761 38.859C58.2537 34.6321 51.7178 32.4993 45.1715 32.4596C45.179 31.9394 45.1712 31.415 45.1473 30.8866C44.9449 26.3879 43.4367 22.2633 40.7856 18.9589C40.0741 18.072 38.9051 17.688 37.807 17.9816C33.7667 19.0603 30.1459 21.445 27.3361 24.8783C26.5593 25.8271 25.8682 26.7996 25.2675 27.7845C23.8777 26.682 22.3366 25.7127 20.6559 24.894C16.6071 22.9217 12.2631 22.2755 8.09387 23.0252C6.97511 23.2264 6.07935 24.0701 5.81198 25.1747C4.82866 29.2392 5.19298 33.5596 6.86619 37.6684C7.70092 39.7191 8.73893 41.5566 9.93257 43.1324C8.93681 43.7376 7.95373 44.4345 6.99459 45.2195C3.56155 48.0293 1.17661 51.6501 0.0979858 55.6904C-0.195202 56.7883 0.188125 57.9573 1.0752 58.6693C4.37961 61.3204 8.50419 62.8286 13.0029 63.0309C13.4051 63.049 13.8046 63.0582 14.2018 63.0582C14.3224 63.0582 14.4419 63.0542 14.5621 63.0523C14.609 71.1116 17.7679 78.6812 23.4716 84.3851C24.7995 85.713 26.2002 86.8658 27.753 87.9094C28.5602 88.4519 29.6539 88.2371 30.1961 87.4301C30.7383 86.6231 30.5238 85.5292 29.7168 84.9869C28.3548 84.0719 27.1264 83.0604 25.9612 81.8954C15.4708 71.405 15.4708 54.3355 25.9612 43.8451C36.4514 33.3549 53.5206 33.3544 64.0115 43.8451C66.5866 46.4202 69.565 50.3128 72.1314 59.6592C72.6314 61.4807 73.0619 63.3154 73.4112 65.1121C74.9585 73.0768 74.9597 80.2046 73.4142 86.298C72.7893 88.7604 70.8673 90.6756 68.3981 91.296C56.8767 94.1908 44.2489 90.9678 37.7469 88.789C37.4007 88.673 37.0582 88.554 36.7192 88.432C35.8047 88.1026 34.7958 88.577 34.4662 89.4918C34.1367 90.4066 34.6113 91.4152 35.5261 91.7448C35.8897 91.8758 36.2568 92.0033 36.6282 92.1277C41.522 93.7675 49.7162 95.9628 58.5076 95.9628C62.0524 95.9628 65.6958 95.6055 69.2563 94.711C72.5483 93.8837 75.1938 91.5291 76.4167 88.4277C78.7526 90.681 81.3495 92.7662 84.2209 94.4844C85.8746 95.4739 87.7285 95.9685 89.5825 95.9685C91.4252 95.9685 93.2679 95.4795 94.9113 94.5011C100.762 91.0181 106.178 85.6217 111.008 78.4622C112.081 76.8713 113.121 75.193 114.099 73.474C117.018 68.3464 120.001 62.119 120.001 54.8083C120 46.4831 116.639 38.9297 111.203 33.4305ZM14.7419 59.5244C14.217 59.5385 13.6891 59.5369 13.1602 59.5132C9.56638 59.3514 6.27606 58.2026 3.6153 56.1857C4.55214 53.028 6.4845 50.1858 9.2239 47.9439C11.776 45.8554 14.4722 44.5042 17.021 44.0371C18.4827 43.7693 19.9411 43.6559 21.3664 43.6848C17.659 48.2323 15.3754 53.6959 14.7419 59.5244ZM22.6901 34.2704C22.3221 36.2783 22.1944 38.2618 22.2967 40.1818C20.377 40.0792 18.3939 40.2059 16.3865 40.5738C15.3125 40.7707 14.225 41.0916 13.1382 41.524C11.9635 40.0952 10.9419 38.3426 10.1267 36.3403C8.79175 33.0617 8.45278 29.6413 9.13869 26.4202C12.4398 25.92 15.879 26.4834 19.1132 28.059C20.7716 28.8667 22.3127 29.873 23.6453 31.0094C23.2103 32.1004 22.8875 33.1922 22.6901 34.2704ZM41.6405 32.6422C35.977 33.2631 30.4567 35.4666 25.8025 39.2527C25.7729 37.8266 25.8854 36.3675 26.1534 34.9053C26.6206 32.3563 27.9715 29.6601 30.0602 27.108C32.3022 24.3686 35.1441 22.4363 38.3018 21.4994C40.319 24.1602 41.4675 27.4505 41.6293 31.0444C41.6532 31.5786 41.6553 32.1119 41.6405 32.6422ZM96.031 21.7173C98.1636 20.2452 101.025 19.2938 104.307 18.9664C107.829 18.6145 111.205 19.2579 114.1 20.8283C113.645 24.136 112.131 27.2749 109.704 29.9303C109.343 30.3256 108.965 30.7012 108.579 31.0657C104.136 27.5019 98.6767 25.156 92.7109 24.5419C93.697 23.5128 94.808 22.5614 96.031 21.7173ZM65.0465 20.8283C67.9415 19.2582 71.3173 18.615 74.8402 18.9664C78.1217 19.2938 80.9833 20.2452 83.1162 21.7173C84.3401 22.5621 85.4537 23.5135 86.4426 24.5423C80.4754 25.1555 75.0142 27.4998 70.5708 31.0648C70.1842 30.7002 69.8044 30.3261 69.4429 29.9303C67.016 27.2747 65.5017 24.136 65.0465 20.8283ZM111.039 71.7315C110.104 73.3733 109.111 74.9749 108.088 76.4922C103.55 83.2184 98.5105 88.2592 93.109 91.4749C90.9264 92.7744 88.2128 92.7697 86.0276 91.4622C82.7974 89.5291 79.9249 87.0822 77.408 84.4473C78.4714 78.4936 78.2925 71.7796 76.8665 64.4398C76.5003 62.5561 76.0494 60.6338 75.5259 58.7263C73.9637 53.0372 71.6699 46.5244 66.5005 41.3548C66.4547 41.309 66.4077 41.2649 66.3617 41.2195C71.0396 33.2589 79.6913 27.9022 89.5733 27.9022C104.409 27.9022 116.479 39.9719 116.479 54.8076C116.479 58.4493 115.833 63.3079 111.039 71.7315Z" fill="url(#paint5_radial)"/>
<path d="M57.2736 61.6934C56.5861 61.0058 55.4713 61.0058 54.784 61.6934C54.0964 62.3809 54.0964 63.4957 54.784 64.183L57.0055 66.4046C57.3492 66.7483 57.7999 66.9203 58.2503 66.9203C58.7008 66.9203 59.1515 66.7485 59.4952 66.4046C60.1827 65.717 60.1827 64.6023 59.4952 63.915L57.2736 61.6934Z" fill="url(#paint6_radial)"/>
<path d="M43.8095 72.6679C43.1219 73.3555 43.1219 74.4702 43.8095 75.1575L46.031 77.3791C46.3747 77.723 46.8254 77.8948 47.2759 77.8948C47.7263 77.8948 48.177 77.723 48.5207 77.3791C49.2082 76.6916 49.2082 75.5768 48.5207 74.8895L46.2991 72.6679C45.6118 71.9804 44.497 71.9806 43.8095 72.6679Z" fill="url(#paint7_radial)"/>
<path d="M43.1628 58.5567C42.4752 57.8691 41.3604 57.8691 40.6731 58.5567C39.9856 59.2442 39.9856 60.359 40.6731 61.0463L42.8947 63.2679C43.2383 63.6115 43.689 63.7836 44.1395 63.7836C44.59 63.7836 45.0407 63.6118 45.3843 63.2679C46.0719 62.5803 46.0719 61.4656 45.3843 60.7782L43.1628 58.5567Z" fill="url(#paint8_radial)"/>
<path d="M54.8833 46.8361C54.1958 46.1483 53.081 46.1485 52.3937 46.8361C51.7062 47.5236 51.7062 48.6384 52.3937 49.3257L54.6153 51.5473C54.9589 51.8912 55.4096 52.063 55.8601 52.063C56.3106 52.063 56.7613 51.8912 57.1049 51.5473C57.7925 50.8597 57.7925 49.7449 57.1049 49.0576L54.8833 46.8361Z" fill="url(#paint9_radial)"/>
<path d="M31.4422 70.2774C30.7546 69.5898 29.6399 69.5898 28.9526 70.2774C28.265 70.9649 28.265 72.0797 28.9526 72.767L31.1741 74.9886C31.5178 75.3322 31.9685 75.5043 32.4189 75.5043C32.8694 75.5043 33.3201 75.3325 33.6637 74.9886C34.3513 74.301 34.3513 73.1863 33.6637 72.4989L31.4422 70.2774Z" fill="url(#paint10_radial)"/>
<path d="M56.7858 74.6691C56.0983 75.3566 56.0983 76.4712 56.7858 77.1587L59.0074 79.3803C59.351 79.7242 59.8017 79.896 60.2522 79.896C60.7026 79.896 61.1533 79.7242 61.497 79.3803C62.1845 78.6927 62.1845 77.5782 61.497 76.8906L59.2754 74.6691C58.5881 73.9813 57.4733 73.9815 56.7858 74.6691Z" fill="url(#paint11_radial)"/>
<defs>
<radialGradient id="paint0_radial" cx="0" cy="0" r="1" gradientUnits="userSpaceOnUse" gradientTransform="translate(97.3335 59.2891) rotate(90) scale(6.02345 2.03313)">
<stop stop-color="#FD83BD"/>
<stop offset="1" stop-color="#FF4B65"/>
</radialGradient>
<radialGradient id="paint1_radial" cx="0" cy="0" r="1" gradientUnits="userSpaceOnUse" gradientTransform="translate(81.8133 59.2891) rotate(90) scale(6.02345 2.03313)">
<stop stop-color="#FD83BD"/>
<stop offset="1" stop-color="#FF4B65"/>
</radialGradient>
<radialGradient id="paint2_radial" cx="0" cy="0" r="1" gradientUnits="userSpaceOnUse" gradientTransform="translate(89.5736 47.0938) rotate(90) scale(6.02345 2.03313)">
<stop stop-color="#FD83BD"/>
<stop offset="1" stop-color="#FF4B65"/>
</radialGradient>
<radialGradient id="paint3_radial" cx="0" cy="0" r="1" gradientUnits="userSpaceOnUse" gradientTransform="translate(106.149 47.0938) rotate(90) scale(6.02345 2.03313)">
<stop stop-color="#FD83BD"/>
<stop offset="1" stop-color="#FF4B65"/>
</radialGradient>
<radialGradient id="paint4_radial" cx="0" cy="0" r="1" gradientUnits="userSpaceOnUse" gradientTransform="translate(89.5736 69.8799) rotate(90) scale(6.02345 2.03313)">
<stop stop-color="#FD83BD"/>
<stop offset="1" stop-color="#FF4B65"/>
</radialGradient>
<radialGradient id="paint5_radial" cx="0" cy="0" r="1" gradientUnits="userSpaceOnUse" gradientTransform="translate(60.0009 -23.2238) rotate(90) scale(86.7294 69.2904)">
<stop stop-color="#FD83BD"/>
<stop offset="1" stop-color="#FF4B65"/>
</radialGradient>
<radialGradient id="paint6_radial" cx="0" cy="0" r="1" gradientUnits="userSpaceOnUse" gradientTransform="translate(57.1396 59.7856) rotate(90) scale(5.19152 3.31584)">
<stop stop-color="#FD83BD"/>
<stop offset="1" stop-color="#FF4B65"/>
</radialGradient>
<radialGradient id="paint7_radial" cx="0" cy="0" r="1" gradientUnits="userSpaceOnUse" gradientTransform="translate(46.1651 70.7602) rotate(90) scale(5.19143 3.31584)">
<stop stop-color="#FD83BD"/>
<stop offset="1" stop-color="#FF4B65"/>
</radialGradient>
<radialGradient id="paint8_radial" cx="0" cy="0" r="1" gradientUnits="userSpaceOnUse" gradientTransform="translate(43.0287 56.6489) rotate(90) scale(5.19152 3.31584)">
<stop stop-color="#FD83BD"/>
<stop offset="1" stop-color="#FF4B65"/>
</radialGradient>
<radialGradient id="paint9_radial" cx="0" cy="0" r="1" gradientUnits="userSpaceOnUse" gradientTransform="translate(54.7493 44.9282) rotate(90) scale(5.1916 3.31584)">
<stop stop-color="#FD83BD"/>
<stop offset="1" stop-color="#FF4B65"/>
</radialGradient>
<radialGradient id="paint10_radial" cx="0" cy="0" r="1" gradientUnits="userSpaceOnUse" gradientTransform="translate(31.3081 68.3696) rotate(90) scale(5.19152 3.31584)">
<stop stop-color="#FD83BD"/>
<stop offset="1" stop-color="#FF4B65"/>
</radialGradient>
<radialGradient id="paint11_radial" cx="0" cy="0" r="1" gradientUnits="userSpaceOnUse" gradientTransform="translate(59.1414 72.7612) rotate(90) scale(5.1916 3.31583)">
<stop stop-color="#FD83BD"/>
<stop offset="1" stop-color="#FF4B65"/>
</radialGradient>
</defs>
</svg>
