<svg width="43" height="43" viewBox="0 0 43 43" fill="none" xmlns="http://www.w3.org/2000/svg">
<path d="M21.5 0.375C9.852 0.375 0.375 9.852 0.375 21.5C0.375 33.148 9.852 42.625 21.5 42.625C33.148 42.625 42.625 33.148 42.625 21.5C42.625 9.852 33.148 0.375 21.5 0.375ZM21.5 3.625C22.0492 3.625 22.5888 3.6575 23.125 3.70625V5.25H26.375V4.31725C30.3239 5.44488 33.7659 7.8944 36.125 11.256V16.625L37.75 19.875V21.5H39.375C39.375 22.0947 39.3425 22.6846 39.2856 23.2648C39.271 23.4208 39.2385 23.5702 39.2206 23.7246C39.1654 24.152 39.1101 24.5761 39.0256 24.9937C38.9948 25.1497 38.9541 25.3025 38.9184 25.4585C38.8241 25.8713 38.7234 26.2807 38.5999 26.6821C38.5576 26.8202 38.5089 26.9551 38.4634 27.0916C38.3295 27.5043 38.1804 27.9119 38.0165 28.3136C37.9678 28.4306 37.9141 28.5444 37.8638 28.6597C37.6818 29.0741 37.49 29.482 37.2787 29.8785C37.23 29.976 37.1748 30.0686 37.1211 30.1612C36.6148 31.0729 36.0297 31.9385 35.3726 32.7483L35.2264 32.9286C34.9111 33.3073 34.5764 33.6696 34.2335 34.0206C34.1831 34.071 34.136 34.1263 34.084 34.1766C33.7309 34.526 33.3633 34.8605 32.9823 35.1792C32.9286 35.2248 32.8831 35.2719 32.8279 35.3158C32.4476 35.6278 32.0479 35.917 31.6433 36.1981C31.5799 36.242 31.523 36.2924 31.4596 36.3346C31.0696 36.5946 30.6666 36.8335 30.2571 37.0659C28.3122 38.1607 26.178 38.8785 23.9667 39.1816L30.4846 34.2676L32.2721 32.4801L34.5 28V26.375L31.25 24.75H29.625L26.375 21.5H23.125L21.5 23.125V24.75L19.875 26.375V29.625L23.125 32.225L19.9124 39.2954C10.7977 38.4861 3.625 30.8194 3.625 21.5C3.625 15.962 6.15837 11.0041 10.125 7.72162V8.5L8.5 10.125V13.7L10.125 19.875L18.25 23.125H19.875V21.5L15 19.875V16.625H19.875L21.5 12.5625L24.75 10.125V8.5L19.875 5.25L17.5382 4.08163C18.8377 3.78211 20.1665 3.62894 21.5 3.625ZM19.875 18.25V19.875H23.125V18.25H19.875Z" fill="url(#paint0_radial)"/>
<defs>
<radialGradient id="paint0_radial" cx="0" cy="0" r="1" gradientUnits="userSpaceOnUse" gradientTransform="translate(21.5 -9.86743) rotate(90) scale(38.1957 24.396)">
<stop stop-color="#FD83BD"/>
<stop offset="1" stop-color="#FF4B65"/>
</radialGradient>
</defs>
</svg>
