<svg width="33" height="36" viewBox="0 0 33 36" fill="none" xmlns="http://www.w3.org/2000/svg">
<path d="M11.1567 19.8167C11.3361 19.5485 11.5286 19.2893 11.7334 19.04C11.2878 18.1997 11.0554 17.2628 11.0567 16.3117C9.95925 15.223 9.33863 13.7433 9.33113 12.1974C9.32364 10.6516 9.92987 9.16595 11.0167 8.06667C11.0289 6.53544 11.6427 5.07041 12.7257 3.98778C13.8086 2.90516 15.2738 2.29177 16.8051 2.28C17.3485 1.71621 18.0002 1.26795 18.721 0.962088C19.4418 0.656224 20.217 0.499056 21.0001 0.500004C22.5717 0.500004 23.9984 1.12167 25.0467 2.13334C25.8155 2.12961 26.5774 2.27769 27.2888 2.56909C28.0001 2.86049 28.647 3.28947 29.1922 3.83143C29.7374 4.37339 30.1703 5.01766 30.4659 5.72729C30.7616 6.43691 30.9142 7.19792 30.9151 7.96667C32.0321 9.07947 32.6621 10.5899 32.6667 12.1667C32.6667 13.75 32.0351 15.1883 31.0101 16.2383V16.3333C31.0102 17.1073 30.8562 17.8735 30.5573 18.5874C30.2583 19.3013 29.8203 19.9486 29.2687 20.4915C28.7171 21.0344 28.0629 21.4621 27.3444 21.7497C26.6258 22.0373 25.8573 22.1791 25.0834 22.1667C24.0317 23.1967 22.5901 23.8333 21.0001 23.8333C19.4001 23.8333 17.9501 23.1883 16.8951 22.145C15.9166 22.1465 14.9535 21.9012 14.0951 21.4317C13.271 22.5576 12.8445 23.9256 12.8829 25.3204C12.9212 26.7152 13.4221 28.0577 14.3067 29.1367L17.2901 32.7767C17.4288 32.946 17.5329 33.1409 17.5963 33.3504C17.6597 33.56 17.6812 33.7799 17.6597 33.9977C17.6381 34.2156 17.5738 34.427 17.4705 34.62C17.3672 34.813 17.2269 34.9837 17.0576 35.1225C16.8883 35.2613 16.6933 35.3653 16.4838 35.4287C16.2743 35.4922 16.0543 35.5137 15.8365 35.4921C15.6187 35.4705 15.4072 35.4062 15.2142 35.3029C15.0212 35.1996 14.8505 35.0593 14.7117 34.89L11.7284 31.25C11.0368 30.4079 10.4935 29.4543 10.1217 28.43C9.2436 28.9179 8.24594 29.149 7.24272 29.0968C6.2395 29.0447 5.27118 28.7114 4.4484 28.135C2.83506 27.0033 1.45673 23.3667 0.315063 17.2233C5.55173 17.5183 8.97673 18.2317 10.5917 19.3617C10.7917 19.5033 10.9817 19.655 11.1584 19.8183L11.1567 19.8167ZM18.2651 18.81L19.2417 19.7767C19.7084 20.2383 20.3301 20.5 21.0001 20.5C21.6667 20.5 22.2834 20.2433 22.7501 19.785L23.7434 18.8117L25.1351 18.8333C26.5584 18.8333 27.6767 17.715 27.6767 16.3333L27.6551 14.905L28.6234 13.9117C29.0784 13.445 29.3334 12.83 29.3334 12.1667C29.3334 11.4833 29.0617 10.85 28.5834 10.38L27.5734 9.39167L27.5817 7.98C27.5817 6.585 26.4634 5.465 25.0817 5.465L23.7101 5.47334L22.7351 4.53334C22.2703 4.08244 21.6476 3.83121 21.0001 3.83334C20.6643 3.83238 20.3318 3.89953 20.0227 4.03073C19.7136 4.16194 19.4343 4.35446 19.2017 4.59667L18.2301 5.60167L16.8301 5.61334C16.1739 5.61857 15.5462 5.88153 15.0822 6.34549C14.6183 6.80945 14.3553 7.43722 14.3501 8.09334L14.3401 9.44667L13.3884 10.41C12.9267 10.8767 12.6667 11.4967 12.6667 12.1667C12.6667 12.845 12.9334 13.4717 13.4051 13.9417L14.3917 14.92V16.31C14.3917 16.973 14.6551 17.6089 15.124 18.0778C15.5928 18.5466 16.2287 18.81 16.8917 18.81H18.2651ZM21.0001 15.5C20.116 15.5 19.2682 15.1488 18.643 14.5237C18.0179 13.8986 17.6667 13.0507 17.6667 12.1667C17.6667 11.2826 18.0179 10.4348 18.643 9.80965C19.2682 9.18453 20.116 8.83334 21.0001 8.83334C21.8841 8.83334 22.732 9.18453 23.3571 9.80965C23.9822 10.4348 24.3334 11.2826 24.3334 12.1667C24.3334 13.0507 23.9822 13.8986 23.3571 14.5237C22.732 15.1488 21.8841 15.5 21.0001 15.5ZM6.36173 25.4033C6.80118 25.6857 7.33287 25.7871 7.84537 25.6861C8.35788 25.5852 8.81142 25.2897 9.11094 24.8618C9.41046 24.4338 9.53272 23.9066 9.45208 23.3905C9.37145 22.8744 9.09418 22.4095 8.6784 22.0933C8.08173 21.675 6.68173 21.275 4.56173 20.97C5.26173 23.58 5.9384 25.1083 6.36173 25.4033Z" fill="white"/>
</svg>
