<svg width="35" height="35" viewBox="0 0 35 35" fill="none" xmlns="http://www.w3.org/2000/svg">
<path d="M32.927 18.3953C33.6202 17.4794 34.0039 16.3571 34.0039 15.1895C34.0039 13.3369 32.9683 11.5834 31.3014 10.6055C30.8723 10.3538 30.3837 10.2213 29.8862 10.2218H19.9921L20.2396 5.15096C20.2974 3.92554 19.8642 2.76202 19.0225 1.87493C18.6094 1.4377 18.1111 1.08981 17.5582 0.852785C17.0054 0.615757 16.4098 0.494619 15.8083 0.496857C13.6628 0.496857 11.7649 1.94095 11.1955 4.00806L7.65129 16.8399H2.31641C1.58611 16.8399 0.996094 17.4299 0.996094 18.1602V33.1787C0.996094 33.909 1.58611 34.499 2.31641 34.499H27.1259C27.5055 34.499 27.8768 34.4248 28.2193 34.2762C30.1833 33.4387 31.4499 31.5201 31.4499 29.3911C31.4499 28.8712 31.3757 28.3596 31.2271 27.8645C31.9203 26.9485 32.304 25.8262 32.304 24.6586C32.304 24.1387 32.2297 23.6271 32.0812 23.132C32.7744 22.216 33.1581 21.0937 33.1581 19.9261C33.1498 19.4062 33.0756 18.8905 32.927 18.3953ZM3.9668 31.5283V19.8106H7.30884V31.5283H3.9668ZM30.2245 16.9636L29.3209 17.7476L29.8944 18.7956C30.0834 19.1408 30.1814 19.5284 30.1791 19.922C30.1791 20.6027 29.8821 21.2505 29.3704 21.6961L28.4668 22.4801L29.0404 23.5281C29.2293 23.8733 29.3273 24.2609 29.325 24.6545C29.325 25.3352 29.028 25.983 28.5164 26.4286L27.6128 27.2126L28.1863 28.2606C28.3752 28.6058 28.4732 28.9934 28.471 29.3869C28.471 30.3112 27.9263 31.1446 27.0846 31.5242H9.94946V19.6785L14.0548 4.80438C14.1607 4.42314 14.3879 4.08679 14.7021 3.84631C15.0163 3.60583 15.4003 3.47431 15.796 3.47169C16.1095 3.47169 16.419 3.56246 16.6666 3.74813C17.075 4.05345 17.2937 4.51556 17.2689 5.00655L16.8729 13.1925H29.8449C30.5793 13.6422 31.0332 14.4014 31.0332 15.1895C31.0332 15.8702 30.7361 16.5139 30.2245 16.9636Z" fill="url(#paint0_radial)"/>
<defs>
<radialGradient id="paint0_radial" cx="0" cy="0" r="1" gradientUnits="userSpaceOnUse" gradientTransform="translate(17.5 -7.74613) rotate(90) scale(30.7394 19.0594)">
<stop stop-color="#FD83BD"/>
<stop offset="1" stop-color="#FF4B65"/>
</radialGradient>
</defs>
</svg>
