<svg width="68" height="120" viewBox="0 0 68 120" fill="none" xmlns="http://www.w3.org/2000/svg">
<path d="M61.0092 0H19.282C15.7917 0 12.9523 2.83945 12.9523 6.33V54.7291C12.5808 55.2342 11.9625 56.051 11.3573 56.8505C9.11647 59.8109 5.72999 64.2851 3.71038 67.4644C-0.272122 73.7438 -0.348998 80.0182 3.45374 88.4452C3.48022 88.504 3.50928 88.5616 3.54069 88.6181C3.54069 88.6181 8.30202 97.2291 8.50616 97.6062C9.70827 99.8271 11.7201 103.544 11.5926 106.466C11.5912 106.5 11.5905 106.534 11.5905 106.568V113.498C11.5905 117.083 14.5076 120 18.093 120H39.2721C42.8576 120 45.7746 117.083 45.7746 113.498L45.7547 107.426C45.7559 105.089 46.1093 103.858 46.5562 102.3C46.8616 101.236 47.2073 100.03 47.4555 98.3965C47.4619 98.3543 47.4673 98.3121 47.4712 98.2694C47.8179 94.6709 46.8827 91.1958 45.8927 87.5168C45.3309 85.429 44.7316 83.201 44.3025 80.7366H61.0094C64.4998 80.7366 67.3392 77.8971 67.3392 74.4066V50.895C67.3392 49.6008 66.2897 48.5512 64.9955 48.5512C63.7012 48.5512 62.6517 49.6008 62.6517 50.895V74.4063C62.6517 75.312 61.9148 76.0488 61.0094 76.0488H55.4805V4.6875H61.0092C61.9146 4.6875 62.6515 5.42438 62.6515 6.33V29.8416C62.6515 31.1358 63.701 32.1853 64.9952 32.1853C66.2894 32.1853 67.339 31.1358 67.339 29.8416V6.33C67.339 2.83945 64.4995 0 61.0092 0V0ZM39.2719 115.312H18.0928C17.1089 115.312 16.2778 114.481 16.2778 113.498V106.616C16.4388 102.415 14.0552 98.0109 12.6286 95.3749C12.4333 95.0145 7.68702 86.43 7.68702 86.43C4.5703 79.4848 4.56725 74.8655 7.66803 69.9764C9.02553 67.8394 11.0855 65.0182 12.9523 62.5228V74.4066C12.9523 77.8971 15.7917 80.7366 19.282 80.7366H26.797V88.5574C26.797 89.8516 27.8463 90.9012 29.1408 90.9012C30.4352 90.9012 31.4845 89.8516 31.4845 88.5574V63.8766C31.4845 61.762 33.2046 60.0417 35.3191 60.0417C36.3478 60.0417 37.3183 60.4481 38.0519 61.1862C38.7726 61.9111 39.1664 62.8617 39.1603 63.8625C39.1554 64.6657 39.1432 69.9506 39.0492 72.4034C38.966 74.5727 39.0579 76.5907 39.2573 78.4744C39.262 78.611 39.4439 79.9995 39.5266 80.5432C39.9991 83.6456 40.7252 86.3541 41.366 88.7346C42.2735 92.1073 43.0584 95.0231 42.8109 97.7573C42.6091 99.0591 42.3375 100.006 42.0501 101.007C41.5669 102.692 41.0669 104.434 41.0669 107.438C41.0669 107.446 41.0669 107.455 41.0672 107.463L41.0869 113.497C41.0869 114.481 40.2558 115.312 39.2719 115.312ZM50.793 76.0491H43.7627C43.7025 74.9419 43.8431 64.6875 43.8478 63.8904C43.8612 61.632 42.9834 59.498 41.3761 57.8813C39.7561 56.2516 37.6048 55.3542 35.3189 55.3542C30.6199 55.3542 26.7968 59.1773 26.7968 63.8766V76.0491H19.2818C18.3762 76.0491 17.6395 75.3122 17.6395 74.4066V6.33C17.6395 5.42438 18.3764 4.6875 19.2818 4.6875H50.793V76.0491Z" fill="url(#paint0_radial)"/>
<defs>
<radialGradient id="paint0_radial" cx="0" cy="0" r="1" gradientUnits="userSpaceOnUse" gradientTransform="translate(34.0002 -29.0909) rotate(90) scale(108.485 38.5011)">
<stop stop-color="#FD83BD"/>
<stop offset="1" stop-color="#FF4B65"/>
</radialGradient>
</defs>
</svg>
