<svg width="28" height="34" viewBox="0 0 28 34" fill="none" xmlns="http://www.w3.org/2000/svg">
<path d="M6.50039 10.75H9.00039V13.25H6.50039V10.75Z" fill="white"/>
<path d="M6.50039 15.75H9.00039V18.25H6.50039V15.75Z" fill="white"/>
<path d="M11.5004 13.25H14.0004V15.75H11.5004V13.25Z" fill="white"/>
<path d="M6.50039 33.25C6.18917 33.2499 5.87836 33.2274 5.57039 33.1825C4.07183 32.9329 2.71192 32.1557 1.73629 30.9912C0.760655 29.8266 0.233625 28.3516 0.250388 26.8325V12.2487C0.23384 10.0473 1.02907 7.91684 2.4841 6.26465C3.93914 4.61246 5.95195 3.55434 8.13789 3.2925C10.0956 3.09448 12.0627 3.56597 13.7179 4.63L23.6804 10.8562C24.9976 11.6871 26.0684 12.8553 26.7817 14.2397C27.495 15.6241 27.8248 17.1742 27.7368 18.729C27.6488 20.2839 27.1462 21.7868 26.2812 23.0819C25.4163 24.3769 24.2204 25.4169 22.8179 26.0938L9.21789 32.63C8.37062 33.0396 7.44146 33.2516 6.50039 33.25ZM9.00289 5.75C8.79622 5.75 8.58789 5.76 8.37789 5.78C6.80889 5.97777 5.36772 6.74658 4.32965 7.9396C3.29158 9.13262 2.72937 10.6662 2.75039 12.2475V26.8337C2.73141 27.7525 3.04126 28.6478 3.62409 29.3583C4.20692 30.0688 5.02439 30.5477 5.92914 30.7087C6.68032 30.8221 7.44821 30.7066 8.13289 30.3775L21.7366 23.84C22.7367 23.3564 23.5891 22.6141 24.2055 21.69C24.8218 20.7659 25.1797 19.6937 25.2419 18.5846C25.3042 17.4755 25.0685 16.37 24.5594 15.3827C24.0503 14.3955 23.2863 13.5624 22.3466 12.97L12.3816 6.7425C11.3747 6.09264 10.2013 5.74795 9.00289 5.75Z" fill="white"/>
<path d="M27.7504 7H22.7504C21.4248 6.99835 20.154 6.47103 19.2167 5.53371C18.2794 4.59638 17.752 3.32557 17.7504 2V0.75H20.2504V2C20.2511 2.66284 20.5147 3.29834 20.9834 3.76704C21.452 4.23573 22.0876 4.49934 22.7504 4.5H27.7504V7Z" fill="white"/>
</svg>
