<svg width="39" height="37" viewBox="0 0 39 37" fill="none" xmlns="http://www.w3.org/2000/svg">
<path d="M23.634 4.59722L27.2025 8.56944H35.1V32.4028H3.9V8.56944H11.7975L15.366 4.59722H23.634ZM25.35 0.625H13.65L10.0815 4.59722H3.9C1.755 4.59722 0 6.38472 0 8.56944V32.4028C0 34.5875 1.755 36.375 3.9 36.375H35.1C37.245 36.375 39 34.5875 39 32.4028V8.56944C39 6.38472 37.245 4.59722 35.1 4.59722H28.9185L25.35 0.625ZM19.5 14.5278C22.7175 14.5278 25.35 17.209 25.35 20.4861C25.35 23.7632 22.7175 26.4444 19.5 26.4444C16.2825 26.4444 13.65 23.7632 13.65 20.4861C13.65 17.209 16.2825 14.5278 19.5 14.5278ZM19.5 10.5556C14.118 10.5556 9.75 15.0044 9.75 20.4861C9.75 25.9678 14.118 30.4167 19.5 30.4167C24.882 30.4167 29.25 25.9678 29.25 20.4861C29.25 15.0044 24.882 10.5556 19.5 10.5556Z" fill="url(#paint0_radial)"/>
<defs>
<radialGradient id="paint0_radial" cx="0" cy="0" r="1" gradientUnits="userSpaceOnUse" gradientTransform="translate(19.5 -8.04167) rotate(90) scale(32.3194 22.5194)">
<stop stop-color="#FD83BD"/>
<stop offset="1" stop-color="#FF4B65"/>
</radialGradient>
</defs>
</svg>
