<svg width="39" height="39" viewBox="0 0 39 39" fill="none" xmlns="http://www.w3.org/2000/svg">
<path d="M24.375 39H14.625C13.7633 38.9991 12.9372 38.6565 12.3279 38.0471C11.7185 37.4378 11.3759 36.6117 11.375 35.75V27.625H3.25C2.38831 27.6241 1.56216 27.2815 0.952854 26.6721C0.343547 26.0628 0.0008604 25.2367 0 24.375V14.625C0.0008604 13.7633 0.343547 12.9372 0.952854 12.3279C1.56216 11.7185 2.38831 11.3759 3.25 11.375H11.375V3.25C11.3759 2.38831 11.7185 1.56216 12.3279 0.952854C12.9372 0.343547 13.7633 0.0008604 14.625 0H24.375C25.2367 0.0008604 26.0628 0.343547 26.6721 0.952854C27.2815 1.56216 27.6241 2.38831 27.625 3.25V11.375H35.75C36.6117 11.3759 37.4378 11.7185 38.0471 12.3279C38.6565 12.9372 38.9991 13.7633 39 14.625V24.375C38.9987 25.2366 38.6559 26.0625 38.0467 26.6717C37.4375 27.2809 36.6116 27.6237 35.75 27.625H27.625V35.75C27.6237 36.6116 27.2809 37.4375 26.6717 38.0467C26.0625 38.6559 25.2366 38.9987 24.375 39ZM3.25 14.625V24.375H14.625V35.75H24.375V24.375H35.75V14.625H24.375V3.25H14.625V14.625H3.25Z" fill="url(#paint0_radial)"/>
<defs>
<radialGradient id="paint0_radial" cx="0" cy="0" r="1" gradientUnits="userSpaceOnUse" gradientTransform="translate(19.5 -9.45455) rotate(90) scale(35.2576 22.5194)">
<stop stop-color="#FD83BD"/>
<stop offset="1" stop-color="#FF4B65"/>
</radialGradient>
</defs>
</svg>
