<svg width="18" height="30" viewBox="0 0 18 30" fill="none" xmlns="http://www.w3.org/2000/svg">
<path d="M9.66671 13.1667C5.88337 12.1833 4.66671 11.1667 4.66671 9.58333C4.66671 7.76667 6.35004 6.5 9.16671 6.5C11.5334 6.5 12.7167 7.4 13.15 8.83333C13.35 9.5 13.9 10 14.6 10H15.1C16.2 10 16.9834 8.91667 16.6 7.88333C15.9 5.91667 14.2667 4.28333 11.6667 3.65V2.5C11.6667 1.11667 10.55 0 9.16671 0C7.78337 0 6.66671 1.11667 6.66671 2.5V3.6C3.43337 4.3 0.833374 6.4 0.833374 9.61667C0.833374 13.4667 4.01671 15.3833 8.66671 16.5C12.8334 17.5 13.6667 18.9667 13.6667 20.5167C13.6667 21.6667 12.85 23.5 9.16671 23.5C6.41671 23.5 5.00004 22.5167 4.45004 21.1167C4.20004 20.4667 3.63337 20 2.95004 20H2.48337C1.36671 20 0.583374 21.1333 1.00004 22.1667C1.95004 24.4833 4.16671 25.85 6.66671 26.3833V27.5C6.66671 28.8833 7.78337 30 9.16671 30C10.55 30 11.6667 28.8833 11.6667 27.5V26.4167C14.9167 25.8 17.5 23.9167 17.5 20.5C17.5 15.7667 13.45 14.15 9.66671 13.1667Z" fill="white"/>
</svg>
